# xmcd CD database file
#
# Track frame offsets:
#	150
#	15318
#	28022
#	39559
#	51065
#	63810
#	75045
#	86896
#	99936
#	113709
#	128848
#	142412
#	153170
#	166323
#	182140
#	195026
#	208394
#	222287
#	235253
#	248940
#
# Disc length: 3504 seconds
#
# Revision: 0
# Processed by: cddbd v1.5.2PL0 Copyright (c) Steve Scherf et al.
# Submitted via: CDex 1.87
#
DISCID=040dae14
DTITLE=Django Reinhardt And Stephane Grappelli - The Absolutely Essential Collection - Disc 1
DYEAR=2016
DGENRE=Jazz
TTITLE0=Nuages
TTITLE1=I'm Confessin'
TTITLE2=Dinah
TTITLE3=Tiger Rag
TTITLE4=Oh, Lady Be Good
TTITLE5=I Saw Stars
TTITLE6=The Continental
TTITLE7=Blue Drag
TTITLE8=Swanee River
TTITLE9=Ultrafox
TTITLE10=I've Had My Moments
TTITLE11=Some Of These Days
TTITLE12=Djangology
TTITLE13=St. Louis Blues
TTITLE14=Chinatown, My Chinatown
TTITLE15=I Got Rhythm
TTITLE16=I've Found A New Baby
TTITLE17=It Was So Beautiful
TTITLE18=Moonglow
TTITLE19=It Don't Mean A Thing (If It Ain't Got That Swing)
EXTD=YEAR: 2016
EXTT0=
EXTT1=
EXTT2=
EXTT3=
EXTT4=
EXTT5=
EXTT6=
EXTT7=
EXTT8=
EXTT9=
EXTT10=
EXTT11=
EXTT12=
EXTT13=
EXTT14=
EXTT15=
EXTT16=
EXTT17=
EXTT18=
EXTT19=
PLAYORDER=
